<svg class="shopify-buy__icon-cart shopify-buy__icon-cart--side" data-element="toggle.icon" width="24" height="24" viewBox="0 0 24 24" fill="none" xmlns="http://www.w3.org/2000/svg">
<path d="M9 21.75C9.9665 21.75 10.75 20.9665 10.75 20C10.75 19.0335 9.9665 18.25 9 18.25C8.0335 18.25 7.25 19.0335 7.25 20C7.25 20.9665 8.0335 21.75 9 21.75Z" stroke="black" stroke-width="1.5" stroke-linecap="round" stroke-linejoin="round"/>
<path d="M19 21.75C19.9665 21.75 20.75 20.9665 20.75 20C20.75 19.0335 19.9665 18.25 19 18.25C18.0335 18.25 17.25 19.0335 17.25 20C17.25 20.9665 18.0335 21.75 19 21.75Z" stroke="black" stroke-width="1.5" stroke-linecap="round" stroke-linejoin="round"/>
<path d="M2 4H5.23898C5.47164 4 5.67355 4.16047 5.72607 4.38712L8.07273 14.5135C8.15586 14.9385 8.38355 15.3203 8.71595 15.5919C9.04835 15.8636 9.46427 16.008 9.89091 15.9997H18.7273C19.1539 16.008 19.5698 15.8636 19.9022 15.5919C20.2346 15.3203 20.4623 14.9385 20.5455 14.5135L21.8888 7.36145C21.9466 7.0537 21.7105 6.76915 21.3973 6.76915H6.54545" stroke="black" stroke-width="1.5" stroke-linecap="round" stroke-linejoin="round"/>
</svg>